<svg id="キラキラアイコン5" xmlns="http://www.w3.org/2000/svg" width="39.995" height="41.354" viewBox="0 0 39.995 41.354">
  <path id="パス_16723" data-name="パス 16723" d="M195.885,12.554l-6.111-1.609a5.777,5.777,0,0,1-4.118-4.116L184.048.718a.963.963,0,0,0-1.863,0l-1.608,6.111a5.777,5.777,0,0,1-4.118,4.116l-6.111,1.609a.963.963,0,0,0,0,1.863l6.111,1.609a5.776,5.776,0,0,1,4.118,4.116l1.608,6.111a.963.963,0,0,0,1.863,0l1.608-6.111a5.776,5.776,0,0,1,4.118-4.116l6.111-1.609a.963.963,0,0,0,0-1.863Z" transform="translate(-156.609)" fill="#669f4f"/>
  <path id="パス_16724" data-name="パス 16724" d="M24.452,315.667l-3.734-.982A3.528,3.528,0,0,1,18.2,312.17l-.983-3.734a.588.588,0,0,0-1.137,0L15.1,312.17a3.53,3.53,0,0,1-2.516,2.514l-3.734.982a.589.589,0,0,0,0,1.139l3.734.982A3.53,3.53,0,0,1,15.1,320.3l.982,3.734a.588.588,0,0,0,1.137,0L18.2,320.3a3.528,3.528,0,0,1,2.515-2.514l3.734-.982a.589.589,0,0,0,0-1.139Z" transform="translate(-8.412 -283.121)" fill="#669f4f"/>
</svg>
