<svg id="ペン付きの書類アイコン" xmlns="http://www.w3.org/2000/svg" width="41.353" height="39.453" viewBox="0 0 41.353 39.453">
  <path id="パス_16726" data-name="パス 16726" d="M191.511,326.807a.892.892,0,0,0,.261-.646l.65-.649,5.27-1.131a1.608,1.608,0,0,0,1.2-.968s1-2.233,1.607-3.245l-1.678-1.678-.261-.262-1.68-1.68c-1.012.607-3.246,1.607-3.246,1.607a1.606,1.606,0,0,0-.967,1.2l-1.132,5.271-.647.649a.9.9,0,1,0,.624,1.533Zm3.844-6.5a.981.981,0,1,1,0,1.387A.981.981,0,0,1,195.355,320.3Z" transform="translate(-174.633 -291.931)" fill="#669f4f"/>
  <path id="パス_16727" data-name="パス 16727" d="M286.624,278.018l-3.579-3.58-1.658,1.658a1.064,1.064,0,0,1-.931.283l-.485.487,1.7,1.7.405.4,2.124,2.124.485-.486a1.062,1.062,0,0,1,.283-.93Z" transform="translate(-257.358 -253.222)" fill="#669f4f"/>
  <path id="パス_16728" data-name="パス 16728" d="M339.593,125.939c-1.656-1.654-3.46-1.5-5.342.376s-7.287,8.612-8.561,9.887l3.641,3.64c1.273-1.273,8-6.681,9.885-8.561S341.247,127.594,339.593,125.939Zm-1.643,2.922-5.666,5.665a.351.351,0,0,1-.5,0l-.777-.777a.354.354,0,0,1,0-.5l5.665-5.666a.356.356,0,0,1,.5,0l.776.777A.353.353,0,0,1,337.949,128.861Z" transform="translate(-299.384 -115.665)" fill="#669f4f"/>
  <rect id="長方形_24199" data-name="長方形 24199" width="15.709" height="1.786" transform="translate(7.14 15.352)" fill="#669f4f"/>
  <rect id="長方形_24200" data-name="長方形 24200" width="11.782" height="1.784" transform="translate(7.14 21.602)" fill="#669f4f"/>
  <rect id="長方形_24201" data-name="長方形 24201" width="8.391" height="1.786" transform="translate(7.14 27.849)" fill="#669f4f"/>
  <path id="パス_16729" data-name="パス 16729" d="M28.964,39.648l-.651.538-.641.641v8.251H2.144V13.908H19.37V20.65a1.741,1.741,0,0,0,1.739,1.738h6.562v6.179c.347-.414.712-.846,1.082-1.286l1.06-1.262V20.157l-8.39-8.391H.894A.892.892,0,0,0,0,12.658V50.327a.892.892,0,0,0,.892.892H28.921a.892.892,0,0,0,.892-.892V38.037L28.79,39.061ZM21.157,14.529,27.23,20.6H21.157Z" transform="translate(-0.002 -11.766)" fill="#669f4f"/>
</svg>
