<svg id="可愛いハートの無料アイコン1" xmlns="http://www.w3.org/2000/svg" width="41.354" height="35.681" viewBox="0 0 41.354 35.681">
  <path id="パス_16730" data-name="パス 16730" d="M30.521,35.119c-4.325.079-6.884,2.637-8.6,5.157a1.625,1.625,0,0,1-1.247.779,1.623,1.623,0,0,1-1.247-.779c-1.715-2.52-4.273-5.078-8.6-5.157C5.155,35,0,39.133,0,48.251c0,8.988,7.728,15.364,12.494,18.612a42.3,42.3,0,0,0,7.066,3.714,5.22,5.22,0,0,0,1.116.22,5.2,5.2,0,0,0,1.116-.22,42.332,42.332,0,0,0,7.067-3.714c4.767-3.248,12.495-9.625,12.495-18.612C41.354,39.133,36.2,35,30.521,35.119ZM9.427,57.223a1.3,1.3,0,0,1-1.813-.3,12.137,12.137,0,0,1-2.163-5.032A16.939,16.939,0,0,1,5.2,49.1a9.6,9.6,0,0,1,.282-2.415,1.3,1.3,0,0,1,2.514.657,7,7,0,0,0-.2,1.758,14.2,14.2,0,0,0,.22,2.353A9.53,9.53,0,0,0,9.729,55.41,1.3,1.3,0,0,1,9.427,57.223Zm1.759-15.536a3.51,3.51,0,0,0-.931.782,1.3,1.3,0,1,1-2.014-1.641,6.134,6.134,0,0,1,1.6-1.364,1.3,1.3,0,0,1,1.345,2.222Z" transform="translate(0 -35.117)" fill="#669f4f"/>
</svg>
