<svg id="シンプルな円袋のアイコン" xmlns="http://www.w3.org/2000/svg" width="34.604" height="41.353" viewBox="0 0 34.604 41.353">
  <path id="パス_16725" data-name="パス 16725" d="M75.959,21.937C73.631,12.654,64.614,9.162,63.825,8.313L66.042.241a10.169,10.169,0,0,0-6.652.772C54.452,3.133,51.7.43,51.7.43l2.437,8.009c-.764.87-10.355,4.768-12.09,13.941-1.5,7.891,3.189,19.153,17.2,18.972S77.918,29.731,75.959,21.937Zm-10.294.791v2.2H61.131l-.756,1.177v1.4h5.29v2.2h-5.29v3.834H57.793V29.713H52.5v-2.2h5.29v-1.4l-.757-1.177H52.5v-2.2h3.117L51.91,16.957h2.644L59.084,24l4.531-7.047h2.641l-3.708,5.771Z" transform="translate(-41.781 -0.001)" fill="#669f4f"/>
</svg>
