<svg id="コイン型の円アイコン" xmlns="http://www.w3.org/2000/svg" width="40" height="40" viewBox="0 0 40 40">
  <path id="パス_16900" data-name="パス 16900" d="M20,0A20,20,0,1,0,40,20,20,20,0,0,0,20,0Zm0,36.25A16.25,16.25,0,1,1,36.25,20,16.269,16.269,0,0,1,20,36.25Z" fill="#669f4f"/>
  <path id="パス_16901" data-name="パス 16901" d="M93.75,80A13.75,13.75,0,1,0,107.5,93.75,13.766,13.766,0,0,0,93.75,80Zm0,26.25a12.5,12.5,0,1,1,12.5-12.5A12.515,12.515,0,0,1,93.75,106.25Z" transform="translate(-73.75 -73.75)" fill="#669f4f"/>
</svg>
