<svg xmlns="http://www.w3.org/2000/svg" width="30.497" height="40" viewBox="0 0 30.497 40">
  <g id="アンケートシートアイコン" transform="translate(-60.822)">
    <path id="パス_16904" data-name="パス 16904" d="M87.717,56.585H84.541v2.022a3.439,3.439,0,0,1-.075.71h3.591a.72.72,0,0,1,.72.72V87.886a.72.72,0,0,1-.72.72H64.084a.72.72,0,0,1-.72-.72V60.038a.72.72,0,0,1,.72-.72h3.591a3.439,3.439,0,0,1-.075-.71V56.585H64.424a3.6,3.6,0,0,0-3.6,3.6V88.563a3.6,3.6,0,0,0,3.6,3.6H87.717a3.6,3.6,0,0,0,3.6-3.6V60.187A3.6,3.6,0,0,0,87.717,56.585Z" transform="translate(0 -52.164)" fill="#669f4f"/>
    <path id="パス_16905" data-name="パス 16905" d="M166,8.6h10.079a2.161,2.161,0,0,0,2.161-2.161V4.279a2.161,2.161,0,0,0-2.161-2.161h-2.731a2.317,2.317,0,0,0-4.617,0H166a2.161,2.161,0,0,0-2.161,2.161V6.443A2.161,2.161,0,0,0,166,8.6Zm5.039-7.333a1.059,1.059,0,1,1-1.059,1.058A1.059,1.059,0,0,1,171.035,1.271Z" transform="translate(-94.965)" fill="#669f4f"/>
    <path id="パス_16906" data-name="パス 16906" d="M144.245,163.109l.928-.928,2.552-2.553-.928-.928-2.553,2.552-1.624-1.624-.928.928Z" transform="translate(-74.553 -146.303)" fill="#669f4f"/>
    <path id="パス_16907" data-name="パス 16907" d="M146.8,244.091l-2.553,2.552-1.624-1.624-.928.928,2.552,2.553.928-.928,2.552-2.553Z" transform="translate(-74.553 -225.021)" fill="#669f4f"/>
    <path id="パス_16908" data-name="パス 16908" d="M142.621,330.409l-.928.928,2.552,2.553.928-.928,2.552-2.553-.928-.928-2.553,2.552Z" transform="translate(-74.553 -303.74)" fill="#669f4f"/>
  </g>
</svg>
