<svg xmlns="http://www.w3.org/2000/svg" width="30.444" height="36" viewBox="0 0 30.444 36">
  <g id="くしアイコン3" transform="translate(-39.506 0)">
    <path id="パス_16902" data-name="パス 16902" d="M68.912,5.7,63.562.35a1.192,1.192,0,1,0-1.687,1.686L65.442,5.6a.524.524,0,0,1,0,.74l-.328.329a.525.525,0,0,1-.741,0L60.611,2.911a.918.918,0,1,0-1.3,1.3l3.761,3.761a.523.523,0,0,1,0,.741l-.33.329a.523.523,0,0,1-.74,0L58.243,5.279a.918.918,0,1,0-1.3,1.3l3.762,3.762a.523.523,0,0,1,0,.741l-.329.329a.524.524,0,0,1-.74,0L55.875,7.646a.918.918,0,1,0-1.3,1.3l3.762,3.762a.525.525,0,0,1,0,.74l-.329.329a.524.524,0,0,1-.741,0l-3.762-3.762a.917.917,0,1,0-1.3,1.3l3.761,3.762a.523.523,0,0,1,0,.74l-.329.33a.524.524,0,0,1-.74,0L51.14,12.382a.918.918,0,0,0-1.3,1.3L53.6,17.442a.524.524,0,0,1,0,.74l-.328.329a.522.522,0,0,1-.74,0l-3.568-3.567a1.193,1.193,0,1,0-1.687,1.687l4.887,5.131c-3.933,3.962-8.881,6.051-10.95,8.121-2.554,2.553-1.723,4.6-.857,5.468a2.216,2.216,0,0,0,3.133,0L56.681,22.163l1.436-1.436L69.095,9.749a2.919,2.919,0,0,0,.855-2.1A2.779,2.779,0,0,0,68.912,5.7Z" transform="translate(0 0)" fill="#669f4f"/>
  </g>
</svg>
