<svg xmlns="http://www.w3.org/2000/svg" width="40" height="34.578" viewBox="0 0 40 34.578">
  <g id="水道の蛇口のフリーアイコン" transform="translate(0 -34.701)">
    <path id="パス_16903" data-name="パス 16903" d="M32.007,53.537a4.766,4.766,0,0,1-1.692-.237c-.279-.12-.3-.16-.369-.24a1.373,1.373,0,0,1-.192-.4,5.368,5.368,0,0,1-.2-1.628V48.684c.932-.225.936-.844.936-1.867,0-.974-1.577-2.071-3.284-2.565V42.644H35.92c2.089,0,1.388-2.838,0-3.343a58.115,58.115,0,0,0-7.315-2.32,3.288,3.288,0,0,0-6.259,0A58.1,58.1,0,0,0,15.03,39.3c-1.388.5-2.088,3.343,0,3.343h8.714v1.608c-1.707.5-3.283,1.591-3.283,2.565s0,1.592.82,1.839v2.373a5.4,5.4,0,0,1-.2,1.628,1.367,1.367,0,0,1-.193.4.741.741,0,0,1-.368.24,4.767,4.767,0,0,1-1.692.237H11.094a14,14,0,0,0-4.437.657,9.812,9.812,0,0,0-2.943,1.554A9.194,9.194,0,0,0,.8,59.692,12.679,12.679,0,0,0,0,64.33v4.949H8.271V64.33a4.927,4.927,0,0,1,.194-1.52,1.3,1.3,0,0,1,.2-.407,1,1,0,0,1,.483-.317,5.447,5.447,0,0,1,1.944-.277h4.882c2.852,0,2.562,4.354,9.332,4.354s7.151-4.354,10-4.354H40V53.537Z" fill="#669f4f"/>
  </g>
</svg>
