<svg xmlns="http://www.w3.org/2000/svg" width="42" height="24.091" viewBox="0 0 42 24.091">
  <g id="ドッグフードのピクトグラム2" transform="translate(0 -109.16)" opacity="0.997">
    <path id="パス_16897" data-name="パス 16897" d="M41.876,129.319l-3.1-10.8a5.208,5.208,0,0,0-1.726-2.631,4.776,4.776,0,0,0-1.357-.768,4.58,4.58,0,0,0-1.567-.276h-.677a16.091,16.091,0,0,0-2.979-3.193c-1.2-.732-5.185-.509-6.478-1.363s-3.238-.984-5-1.113c-2.235-.165-4.175,1.432-5.195,1.548A5.877,5.877,0,0,0,9.894,113a8.512,8.512,0,0,0-1.461,1.841H7.879a4.584,4.584,0,0,0-1.567.276,4.847,4.847,0,0,0-1.926,1.3,5.288,5.288,0,0,0-1.157,2.094l-3.1,10.8A3.2,3.2,0,0,0,0,130.2a3.155,3.155,0,0,0,.528,1.756h0a2.945,2.945,0,0,0,1.014.94,2.782,2.782,0,0,0,1.353.352H39.1a2.783,2.783,0,0,0,1.353-.352,2.946,2.946,0,0,0,1.015-.94h0A3.157,3.157,0,0,0,42,130.2,3.2,3.2,0,0,0,41.876,129.319Zm-2.6,1.172a.3.3,0,0,1-.1.1.138.138,0,0,1-.071.02H2.9a.138.138,0,0,1-.071-.02.307.307,0,0,1-.1-.1.53.53,0,0,1-.083-.289.565.565,0,0,1,.022-.155l3.1-10.8a2.572,2.572,0,0,1,.843-1.3,2.128,2.128,0,0,1,.6-.343,1.933,1.933,0,0,1,.665-.118H34.122a1.933,1.933,0,0,1,.664.118,2.2,2.2,0,0,1,.872.6,2.644,2.644,0,0,1,.575,1.05l3.1,10.8a.565.565,0,0,1,.021.155.525.525,0,0,1-.082.289Z" transform="translate(0 0)" fill="#669f4f"/>
    <path id="パス_16898" data-name="パス 16898" d="M166.816,249.027a1.9,1.9,0,0,0-3.8-.14c-.66.571-.98.379-2.266.379-1.348,0-6.784.238-7.387-.433a1.9,1.9,0,1,0-2.813,1.859,1.9,1.9,0,1,0,2.823,1.664c0-.049,0-.1-.008-.147a1.256,1.256,0,0,1,.84-.447h7.972a1.255,1.255,0,0,1,.84.447c0,.048-.008.1-.008.147a1.9,1.9,0,1,0,2.823-1.664A1.9,1.9,0,0,0,166.816,249.027Z" transform="translate(-137.302 -126.648)" fill="#669f4f"/>
  </g>
</svg>
