<svg xmlns="http://www.w3.org/2000/svg" width="38" height="29.72" viewBox="0 0 38 29.72">
  <g id="肉球のアイコン1" transform="translate(0 -55.782)">
    <path id="パス_16913" data-name="パス 16913" d="M123.16,63.824a4.131,4.131,0,1,0-5.247-2.571A4.131,4.131,0,0,0,123.16,63.824Z" transform="translate(-108.954 -0.001)" fill="#669f4f"/>
    <path id="パス_16914" data-name="パス 16914" d="M7.6,171.234h0a4.131,4.131,0,1,0-6.937-4.49h0A4.131,4.131,0,0,0,7.6,171.234Z" transform="translate(0 -100.981)" fill="#669f4f"/>
    <path id="パス_16915" data-name="パス 16915" d="M285.752,63.824a4.131,4.131,0,1,0-2.57-5.247A4.132,4.132,0,0,0,285.752,63.824Z" transform="translate(-261.957)" fill="#669f4f"/>
    <path id="パス_16916" data-name="パス 16916" d="M106.128,191.489c-6.529,0-13.734,9.041-11.648,15.474,2.014,6.211,8.305,3.651,11.648,3.651s9.635,2.56,11.648-3.651C119.862,200.53,112.657,191.489,106.128,191.489Z" transform="translate(-87.128 -125.635)" fill="#669f4f"/>
    <path id="パス_16917" data-name="パス 16917" d="M408.268,166.745h0a4.131,4.131,0,1,0-6.937,4.49h0a4.131,4.131,0,0,0,6.937-4.488Z" transform="translate(-370.93 -100.98)" fill="#669f4f"/>
  </g>
</svg>
