<svg id="グループ_7576" data-name="グループ 7576" xmlns="http://www.w3.org/2000/svg" xmlns:xlink="http://www.w3.org/1999/xlink" width="28.82" height="36.868" viewBox="0 0 28.82 36.868">
  <defs>
    <clipPath id="clip-path">
      <rect id="長方形_323" data-name="長方形 323" width="28.82" height="36.868" fill="#704b20"/>
    </clipPath>
  </defs>
  <g id="グループ_234" data-name="グループ 234" transform="translate(0 0)" clip-path="url(#clip-path)">
    <path id="パス_245" data-name="パス 245" d="M27.621,3.678a7.315,7.315,0,0,0-1.794-2.534,4.5,4.5,0,0,0-3-1.143A4.151,4.151,0,0,0,21.17.343a5.137,5.137,0,0,0-2.046,1.695,10.409,10.409,0,0,0-1.495,3.09c-.076.245-.139.471-.192.675H11.382a13.21,13.21,0,0,0-.8-2.255A7.52,7.52,0,0,0,8.953,1.206,4.607,4.607,0,0,0,7.65.343,4.151,4.151,0,0,0,5.989,0,4.536,4.536,0,0,0,3,1.12,8.362,8.362,0,0,0,.651,5.1,15.853,15.853,0,0,0,0,9.545v13.1a15.107,15.107,0,0,0,.62,4.1,14.387,14.387,0,0,0,4.153,6.784,14.033,14.033,0,0,0,9.636,3.343,15.187,15.187,0,0,0,7.095-1.6,13.106,13.106,0,0,0,5.819-6.2,15.746,15.746,0,0,0,1.5-6.431V9.545a15.041,15.041,0,0,0-1.2-5.867M26.574,22.645a12.914,12.914,0,0,1-.531,3.472,12.15,12.15,0,0,1-3.486,5.729,11.77,11.77,0,0,1-8.147,2.776,12.941,12.941,0,0,1-6.058-1.34,10.864,10.864,0,0,1-4.821-5.158A13.98,13.98,0,0,1,2.385,24.33h4.65c3.56,0,5.933-3.427,5.933-6.2V8.048H19.3l.152-.943a11.313,11.313,0,0,1,.85-2.665,5.191,5.191,0,0,1,1.114-1.6,2.358,2.358,0,0,1,.662-.438,1.9,1.9,0,0,1,.757-.152,2.235,2.235,0,0,1,1.525.594A6.422,6.422,0,0,1,26.02,5.807a13.519,13.519,0,0,1,.554,3.738Z" transform="translate(0 0)" fill="#704b20"/>
    <path id="パス_246" data-name="パス 246" d="M17,31.519c-1.653,0-2.994,1.006-2.994,2.246S15.35,36.011,17,36.011,20,35.005,20,33.765,18.657,31.519,17,31.519" transform="translate(-2.78 -6.254)" fill="#704b20"/>
    <path id="パス_247" data-name="パス 247" d="M24.519,20.079a1.872,1.872,0,1,0,1.872,1.872,1.871,1.871,0,0,0-1.872-1.872" transform="translate(-4.494 -3.984)" fill="#704b20"/>
    <path id="パス_248" data-name="パス 248" d="M28.035,6.381c-1.246,0-1.5,2.62-1.5,2.62h2.745s0-2.62-1.248-2.62" transform="translate(-5.266 -1.266)" fill="#704b20"/>
  </g>
</svg>
