<svg xmlns="http://www.w3.org/2000/svg" width="28.513" height="40" viewBox="0 0 28.513 40">
  <g id="猫の手アイコン3" transform="translate(-73.516)">
    <path id="パス_16926" data-name="パス 16926" d="M195.319,84.644a2,2,0,1,0-2.336-1.592A2,2,0,0,0,195.319,84.644Z" transform="translate(-110.102 -74.377)" fill="#669f4f"/>
    <path id="パス_16927" data-name="パス 16927" d="M136.622,126.6a2,2,0,1,0,.192,2.82A2,2,0,0,0,136.622,126.6Z" transform="translate(-55.121 -116.253)" fill="#669f4f"/>
    <path id="パス_16928" data-name="パス 16928" d="M330.078,126.128a2,2,0,1,0,1.592,2.337A2,2,0,0,0,330.078,126.128Z" transform="translate(-234.333 -116.242)" fill="#669f4f"/>
    <path id="パス_16929" data-name="パス 16929" d="M271.38,84.191a2,2,0,0,0,.193-2.822h0a2,2,0,1,0-.193,2.82Z" transform="translate(-179.352 -74.382)" fill="#669f4f"/>
    <path id="パス_16930" data-name="パス 16930" d="M185.556,166.437c-3.16,0-6.646,3.646-5.637,6.24.975,2.5,4.019,1.473,5.637,1.473s4.662,1.032,5.636-1.473C192.2,170.083,188.716,166.437,185.556,166.437Z" transform="translate(-97.927 -153.434)" fill="#669f4f"/>
    <path id="パス_16931" data-name="パス 16931" d="M101.005,7.954A13.025,13.025,0,0,0,89,0H86.54A13.022,13.022,0,0,0,73.516,13.024V40h28.513V13.024A12.994,12.994,0,0,0,101.005,7.954ZM99.34,37.311H76.207V13.024A10.329,10.329,0,0,1,86.54,2.691H89A10.331,10.331,0,0,1,99.34,13.024V37.311Z" fill="#669f4f"/>
  </g>
</svg>
