<svg xmlns="http://www.w3.org/2000/svg" xmlns:xlink="http://www.w3.org/1999/xlink" width="38.413" height="32.774" viewBox="0 0 38.413 32.774">
  <defs>
    <clipPath id="clip-path">
      <rect id="長方形_328" data-name="長方形 328" width="38.413" height="32.774" fill="#704b20" stroke="rgba(0,0,0,0)" stroke-width="1"/>
    </clipPath>
  </defs>
  <g id="グループ_236" data-name="グループ 236" clip-path="url(#clip-path)">
    <path id="パス_249" data-name="パス 249" d="M32.318,6.7C29.138,0,27.235,0,26.412,0a2.649,2.649,0,0,0-.434.036c-1.358.226-3.1,1.653-5.2,4.245H17.633C15.539,1.689,13.792.262,12.434.036A2.629,2.629,0,0,0,12,0h-.019c-.833,0-2.732.049-5.889,6.7C2.565,9.531-2.437,16.425,1.358,24.647c3.751,8.127,14.362,8.127,17.849,8.127s14.1,0,17.849-8.126c3.8-8.223-1.208-15.117-4.737-17.946m2.8,17.05c-3.087,6.687-12.11,6.885-15.909,6.885S6.384,30.439,3.3,23.752C-.976,14.491,7.809,8.08,7.809,8.08S10.551,2.137,12,2.137l.082.007c1.425.237,4.512,4.274,4.512,4.274h5.223s3.087-4.037,4.512-4.274l.082-.007C27.86,2.137,30.6,8.08,30.6,8.08s8.786,6.411,4.512,15.672" transform="translate(0 0)" fill="#704b20" stroke="rgba(0,0,0,0)" stroke-width="1"/>
    <rect id="長方形_324" data-name="長方形 324" width="0.712" height="7.807" transform="translate(5.852 20.765) rotate(-85.498)" fill="#704b20" stroke="rgba(0,0,0,0)" stroke-width="1"/>
    <rect id="長方形_325" data-name="長方形 325" width="7.638" height="0.712" transform="translate(5.717 23.854) rotate(-6.119)" fill="#704b20" stroke="rgba(0,0,0,0)" stroke-width="1"/>
    <rect id="長方形_326" data-name="長方形 326" width="7.806" height="0.712" transform="matrix(0.997, -0.079, 0.079, 0.997, 24.723, 20.668)" fill="#704b20" stroke="rgba(0,0,0,0)" stroke-width="1"/>
    <rect id="長方形_327" data-name="長方形 327" width="0.712" height="7.638" transform="translate(25.025 23.75) rotate(-83.908)" fill="#704b20" stroke="rgba(0,0,0,0)" stroke-width="1"/>
    <path id="パス_250" data-name="パス 250" d="M56.14,68.935a6.61,6.61,0,0,1-1.525.2,2.772,2.772,0,0,1-1.266-.257,1.832,1.832,0,0,1-.888-1.013,3.993,3.993,0,0,1-.237-1.437,6.155,6.155,0,0,1,.052-.775L53.531,64.4a.808.808,0,0,0-.57-1.379H50.133a.808.808,0,0,0-.541,1.407L50.8,65.523a6.13,6.13,0,0,1,.069.909,3.413,3.413,0,0,1-.447,1.844,1.728,1.728,0,0,1-.678.6,2.769,2.769,0,0,1-1.265.257,6.586,6.586,0,0,1-1.525-.2.606.606,0,1,0-.282,1.178,7.874,7.874,0,0,0,1.807.236,3.988,3.988,0,0,0,1.81-.386,2.969,2.969,0,0,0,1.265-1.227c.039.069.064.14.107.207A2.965,2.965,0,0,0,52.8,69.963a3.985,3.985,0,0,0,1.811.386,7.781,7.781,0,0,0,1.807-.237.605.605,0,1,0-.282-1.177" transform="translate(-32.34 -44.11)" fill="#704b20" stroke="rgba(0,0,0,0)" stroke-width="1"/>
    <path id="パス_251" data-name="パス 251" d="M35.693,17.033,34.625,19.7,37.3,19.17Z" transform="translate(-24.234 -11.922)" fill="#704b20" stroke="rgba(0,0,0,0)" stroke-width="1"/>
    <path id="パス_252" data-name="パス 252" d="M86.075,17.033l-1.6,2.137,2.671.534Z" transform="translate(-59.122 -11.922)" fill="#704b20" stroke="rgba(0,0,0,0)" stroke-width="1"/>
    <path id="パス_253" data-name="パス 253" d="M36.5,46.627a1.9,1.9,0,1,0,1.9-1.9,1.9,1.9,0,0,0-1.9,1.9" transform="translate(-25.548 -31.304)" fill="#704b20" stroke="rgba(0,0,0,0)" stroke-width="1"/>
    <path id="パス_254" data-name="パス 254" d="M80.735,48.528a1.9,1.9,0,1,0-1.9-1.9,1.9,1.9,0,0,0,1.9,1.9" transform="translate(-55.177 -31.305)" fill="#704b20" stroke="rgba(0,0,0,0)" stroke-width="1"/>
  </g>
</svg>
