<svg id="グループ_7578" data-name="グループ 7578" xmlns="http://www.w3.org/2000/svg" xmlns:xlink="http://www.w3.org/1999/xlink" width="38.306" height="38.626" viewBox="0 0 38.306 38.626">
  <defs>
    <clipPath id="clip-path">
      <rect id="長方形_329" data-name="長方形 329" width="38.306" height="38.627" fill="#704b20"/>
    </clipPath>
  </defs>
  <path id="パス_255" data-name="パス 255" d="M30.193,91.5h0Z" transform="translate(-21.081 -63.891)" fill="#704b20"/>
  <path id="パス_256" data-name="パス 256" d="M91.537,67.774h0Z" transform="translate(-63.914 -47.322)" fill="#704b20"/>
  <g id="グループ_239" data-name="グループ 239">
    <g id="グループ_238" data-name="グループ 238" clip-path="url(#clip-path)">
      <path id="パス_257" data-name="パス 257" d="M35.07,3.236a11.047,11.047,0,0,0-18.859,7.812c0,.286,0,.869-.007,1.379,0,.255,0,.492,0,.665s0,.283,0,.283v.018l.2,5.629c-.148-.15-.377-.378-.655-.651-.469-.459-1.071-1.037-1.648-1.554-.038-.058-.077-.116-.12-.173-.125-.169-.269-.336-.417-.5-.221-.247-.454-.486-.626-.665a.109.109,0,0,0-.01-.011,7.122,7.122,0,0,0,.112-1.182,3.758,3.758,0,0,0-.094-.876,2.619,2.619,0,0,0-.239-.639,2.281,2.281,0,0,0-.722-.8,2.909,2.909,0,0,0-1.079-.435,1.819,1.819,0,0,0-.352-.034,2.023,2.023,0,0,0-.582.088,2.921,2.921,0,0,0-.859.432,4.518,4.518,0,0,0-.987.989,4.268,4.268,0,0,0-.359.573,3.336,3.336,0,0,0-.19.438,6.408,6.408,0,0,0-2.035.816A7.179,7.179,0,0,0,4.093,16.02,13.47,13.47,0,0,0,2.514,18.13C2.1,18.785,1.726,19.425,1.347,20c-.056.03-.118.067-.184.11a2.571,2.571,0,0,0-.748.716,2.339,2.339,0,0,0-.3.609A2.5,2.5,0,0,0,0,22.2a3.5,3.5,0,0,0,.292,1.337,4.519,4.519,0,0,0,.448.836,3.454,3.454,0,0,0,1.143,1.055,4.423,4.423,0,0,0,1.082.428,10.142,10.142,0,0,0,1.906.265c.7.043,1.486.058,2.373.078.139,0,.386.019.658.037l.231.014-.256.3h0a.224.224,0,0,1-.131.074l-.032.006-2.092.554-.008,0a2.627,2.627,0,0,0-1.316.9,2.08,2.08,0,0,0-.289.526,1.9,1.9,0,0,0-.116.654,2.012,2.012,0,0,0,.06.484,1.736,1.736,0,0,0,.348.668,2.709,2.709,0,0,0,.785.644,2.506,2.506,0,0,0,.473.2,1.888,1.888,0,0,0,.548.088c.021,0,.038,0,.057,0l2.178.03a4.29,4.29,0,0,0-.049.648,5.838,5.838,0,0,0,.166,1.32c.044.189.1.381.155.574a5.283,5.283,0,0,0-.56.251,3.661,3.661,0,0,0-.762.531,2.71,2.71,0,0,0-.691.977,2.641,2.641,0,0,0-.19.991,3.19,3.19,0,0,0,.2,1.088,2.9,2.9,0,0,0,.215.468l.237.4H19.434l.231-.432a8.487,8.487,0,0,0,.419-.979,7.876,7.876,0,0,0,2.555-1.224,13.478,13.478,0,0,0,4-4.629,14.793,14.793,0,0,0,1.774-7.011,15.047,15.047,0,0,0-.18-2.3c.143-.012.285-.026.425-.044h.008L28.721,22A11.048,11.048,0,0,0,35.07,3.236m-.753,14.038a9.393,9.393,0,0,1-5.811,3.1c-.195.027-.392.046-.591.059H27.9l-.045,0h0l-.232.012h0l-.069,0h-.008c-.1,0-.192.005-.287.005l-.187,0a4.2,4.2,0,0,1-2.216-1.094,4.368,4.368,0,0,1-1.244-2.134,3.83,3.83,0,0,1-.128-.982,4.145,4.145,0,0,1,.347-1.638,4.759,4.759,0,0,1,1.543-1.937,3.64,3.64,0,0,1,2.122-.753,2.713,2.713,0,0,1,1.055.21l.441-1.055a3.866,3.866,0,0,0-1.5-.3,4.515,4.515,0,0,0-1.932.455,5.761,5.761,0,0,0-2.284,2.006,5.449,5.449,0,0,0-.94,3.011,4.962,4.962,0,0,0,.166,1.274,5.518,5.518,0,0,0,1.575,2.684,5.224,5.224,0,0,0,2.053,1.155c.3.053.38.34.433.634a13.46,13.46,0,0,1,.211,2.357,13.091,13.091,0,0,1-.746,4.353,12.951,12.951,0,0,1-3.074,4.9,9.387,9.387,0,0,1-1.888,1.455,5.144,5.144,0,0,1-1.733.649l-.5.075-.157.477c-.1.3-.192.549-.269.736H8.083a1.4,1.4,0,0,1-.039-.322.993.993,0,0,1,.054-.335.951.951,0,0,1,.133-.249,1.608,1.608,0,0,1,.5-.424,4.207,4.207,0,0,1,1.109-.416l.882-.213-.3-.855a11.139,11.139,0,0,1-.367-1.2,4.2,4.2,0,0,1-.124-.951,2.572,2.572,0,0,1,.145-.853c.235-.041.468-.085.693-.135a6.927,6.927,0,0,0,.849-.234,3.3,3.3,0,0,0,.39-.172,1.861,1.861,0,0,0,.377-.262.817.817,0,0,0-1.1-1.206h0a.567.567,0,0,1-.073.041,2.5,2.5,0,0,1-.407.143c-.269.075-.617.146-.991.213-.35.062-.725.123-1.095.187l-2.571-.035-.033,0h0a.509.509,0,0,1-.136-.041,1.165,1.165,0,0,1-.333-.218.647.647,0,0,1-.093-.107l-.008-.013a.452.452,0,0,1-.01-.073.279.279,0,0,1,.03-.122A.725.725,0,0,1,5.77,28.9a1.009,1.009,0,0,1,.292-.151l2.038-.54a1.858,1.858,0,0,0,1.012-.6l1.22-1.406-.262-1.839-.89.238a.857.857,0,0,1-.13.017c-.074.008-.17.01-.277.01-.228,0-.505-.014-.768-.031s-.514-.034-.726-.04c-.9-.019-1.681-.034-2.338-.077a9.985,9.985,0,0,1-1.271-.146,3.8,3.8,0,0,1-.685-.194,1.925,1.925,0,0,1-.684-.438,2.438,2.438,0,0,1-.5-.8,1.877,1.877,0,0,1-.167-.71.752.752,0,0,1,.213-.554,1.124,1.124,0,0,1,.251-.192c.038-.022.071-.038.1-.051s.026-.011.044-.021a.507.507,0,0,0,.047-.023.682.682,0,0,0,.065-.037c.018-.012.04-.026.074-.054a.83.83,0,0,0,.063-.057.936.936,0,0,0,.094-.113l0-.006c.413-.61.786-1.247,1.166-1.859A11.137,11.137,0,0,1,5.627,16.8a4.889,4.889,0,0,1,2.726-1.267L9,15.448l.059-.648a.894.894,0,0,1,.03-.172,1.879,1.879,0,0,1,.227-.48,3.032,3.032,0,0,1,.679-.754,1.638,1.638,0,0,1,.342-.208.558.558,0,0,1,.208-.052l.031,0h0a1.375,1.375,0,0,1,.442.158.646.646,0,0,1,.164.14.794.794,0,0,1,.153.308,2.064,2.064,0,0,1,.062.544,6.644,6.644,0,0,1-.155,1.267l-.016.079v.081a.819.819,0,0,0,.047.276.792.792,0,0,0,.053.118.888.888,0,0,0,.066.105c.033.045.054.071.077.1.044.049.086.1.135.149.087.091.192.2.308.32.171.178.362.381.522.565.08.091.152.178.208.25a1.563,1.563,0,0,1,.1.148l.068.123.1.093c.569.507,1.2,1.108,1.68,1.581.241.236.446.44.591.586l.169.169.043.045.015.015.017.017.019.018a1.55,1.55,0,0,0,1.765.221h0a1.551,1.551,0,0,0,.825-1.371c0-.043,0-.085-.008-.129h0l-.2-5.739c0-.178.012-1.765.012-2.321a9.413,9.413,0,1,1,16.471,6.226" fill="#704b20"/>
      <path id="パス_258" data-name="パス 258" d="M19.783,64.342a.817.817,0,1,0,.817.817.817.817,0,0,0-.817-.817" transform="translate(-13.243 -44.925)" fill="#704b20"/>
    </g>
  </g>
</svg>
