<svg id="バケツアイコン2" xmlns="http://www.w3.org/2000/svg" width="40" height="35.234" viewBox="0 0 40 35.234">
  <path id="パス_16933" data-name="パス 16933" d="M35.455,30.5H9.041A4.555,4.555,0,0,0,4.49,35.048a4.508,4.508,0,0,0,1.4,3.285l.193,2.295.094,1.178-.066-.077A24.165,24.165,0,0,0,1.766,46.72,13.724,13.724,0,0,0,.49,49.262a7.272,7.272,0,0,0-.49,2.5,4.286,4.286,0,0,0,.771,2.548,4.47,4.47,0,0,0,2.317,1.612,3.516,3.516,0,0,0,1.106.165,7.474,7.474,0,0,0,2.773-.66,29.335,29.335,0,0,0,5.47-3.219c.594-.429,1.266-.941,1.975-1.5v1.034a3.577,3.577,0,0,0,3.577,3.577H30.276a3.577,3.577,0,0,0,3.577-3.577v-13.7h2.41L34.536,58.914a4.681,4.681,0,0,1-4.667,4.292H14.8a4.675,4.675,0,0,1-4.661-4.292l-.215-2.576-.094-1.117A20.6,20.6,0,0,1,7.39,56.448l.011.1.209,2.575A7.255,7.255,0,0,0,14.8,65.737H29.869a7.247,7.247,0,0,0,7.187-6.614L38.794,38.13a4.544,4.544,0,0,0-3.34-7.627ZM14.412,47.187c-.677.567-1.321,1.09-1.887,1.53A41.574,41.574,0,0,1,7.539,52.09a13.905,13.905,0,0,1-2.019.952,4.06,4.06,0,0,1-1.326.3.849.849,0,0,1-.247-.028A1.764,1.764,0,0,1,3,52.706a1.541,1.541,0,0,1-.253-.941,4.421,4.421,0,0,1,.325-1.557,12.245,12.245,0,0,1,1.777-3.115,21.192,21.192,0,0,1,1.6-1.877l.126,1.491.375,4.446.049-.027c.715-.4,1.508-.892,2.361-1.475L8.92,44.265l-.094-1.117L8.4,38.041h6.009v9.146Zm0-10.466H7.919a2.012,2.012,0,0,1,1.123-3.687h5.371v3.687Zm17.79,0V51.743a1.926,1.926,0,0,1-1.926,1.926H17.989a1.936,1.936,0,0,1-1.926-1.926V33.034H32.2Zm4.364,0H33.853V33.034h1.6a2.01,2.01,0,0,1,1.111,3.687Z" transform="translate(0 -30.503)" fill="#669f4f"/>
  <path id="パス_16934" data-name="パス 16934" d="M374.031,151.505a.55.55,0,0,0,.55-.55V148.99a.55.55,0,1,0-1.1,0v1.965A.55.55,0,0,0,374.031,151.505Z" transform="translate(-344.303 -139.226)" fill="#669f4f"/>
  <path id="パス_16935" data-name="パス 16935" d="M374.031,214.374a.55.55,0,0,0,.55-.55v-1.965a.55.55,0,1,0-1.1,0v1.965A.55.55,0,0,0,374.031,214.374Z" transform="translate(-344.303 -197.184)" fill="#669f4f"/>
  <path id="パス_16936" data-name="パス 16936" d="M374.031,88.637a.55.55,0,0,0,.55-.55V86.122a.55.55,0,1,0-1.1,0v1.965A.55.55,0,0,0,374.031,88.637Z" transform="translate(-344.303 -81.27)" fill="#669f4f"/>
  <path id="パス_16937" data-name="パス 16937" d="M359.944,276.387h1.1a.55.55,0,0,0,.55-.55v-1.1a.55.55,0,0,0-1.1,0v.55h-.55a.55.55,0,1,0,0,1.1Z" transform="translate(-331.316 -255.148)" fill="#669f4f"/>
  <path id="パス_16938" data-name="パス 16938" d="M288.043,289.374h2.247a.55.55,0,0,0,0-1.1h-2.247a.55.55,0,0,0,0,1.1Z" transform="translate(-265.033 -268.135)" fill="#669f4f"/>
  <path id="パス_16939" data-name="パス 16939" d="M230.813,276.386h1.1a.55.55,0,0,0,0-1.1h-.55v-.55a.55.55,0,1,0-1.1,0v1.1a.551.551,0,0,0,.55.55Z" transform="translate(-212.274 -255.147)" fill="#669f4f"/>
  <path id="パス_16940" data-name="パス 16940" d="M230.814,214.382a.551.551,0,0,0,.55-.55v-1.965a.55.55,0,0,0-1.1,0v1.965A.55.55,0,0,0,230.814,214.382Z" transform="translate(-212.275 -197.191)" fill="#669f4f"/>
  <path id="パス_16941" data-name="パス 16941" d="M230.814,151.505a.55.55,0,0,0,.55-.55V148.99a.55.55,0,1,0-1.1,0v1.965A.55.55,0,0,0,230.814,151.505Z" transform="translate(-212.275 -139.226)" fill="#669f4f"/>
  <path id="パス_16942" data-name="パス 16942" d="M230.814,88.637a.55.55,0,0,0,.55-.55V86.122a.55.55,0,1,0-1.1,0v1.965A.55.55,0,0,0,230.814,88.637Z" transform="translate(-212.275 -81.27)" fill="#669f4f"/>
</svg>
