<svg xmlns="http://www.w3.org/2000/svg" width="38" height="38" viewBox="0 0 38 38">
  <g id="グループ_7566" data-name="グループ 7566" transform="translate(-130 -5338)">
    <g id="ほうきのイラスト素材2" transform="translate(139 5347)">
      <path id="パス_16756" data-name="パス 16756" d="M190.609,140.81l-.675.674a4.4,4.4,0,0,0-5.316.693l6.216,6.216a4.4,4.4,0,0,0,.693-5.316l.675-.674Z" transform="translate(-177.142 -135.138)" fill="#669f4f"/>
      <path id="パス_16757" data-name="パス 16757" d="M0,190.446a17.4,17.4,0,0,0,1.174,1.834,40.371,40.371,0,0,0,3.645-2.5l.256.256s-1.729,1.616-3.338,3c.233.3.49.616.77.943.868-.751,1.831-1.611,2.529-2.309l.355.2s-1.2,1.283-2.467,2.583q.4.442.854.9a22.139,22.139,0,0,0,2.193,1.921c.671-.774,1.819-2.107,2.174-2.571l.393.472s-1.055,1.6-1.64,2.77A14.842,14.842,0,0,0,8.675,199c1.269-2.213,4.644-6.864,4.644-6.864l-6.314-6.315A44.447,44.447,0,0,1,0,190.446Z" transform="translate(0 -178.33)" fill="#669f4f"/>
      <rect id="長方形_24243" data-name="長方形 24243" width="7.773" height="1.586" transform="translate(14.114 5.496) rotate(-45)" fill="#669f4f"/>
    </g>
    <g id="楕円形_227" data-name="楕円形 227" transform="translate(130 5338)" fill="none" stroke="#669f4f" stroke-width="1">
      <circle cx="19" cy="19" r="19" stroke="none"/>
      <circle cx="19" cy="19" r="18.5" fill="none"/>
    </g>
  </g>
</svg>
