<svg xmlns="http://www.w3.org/2000/svg" width="38" height="38" viewBox="0 0 38 38">
  <g id="グループ_7568" data-name="グループ 7568" transform="translate(-242 -5482)">
    <g id="買い物カゴのアイコン3" transform="translate(252 5493)">
      <path id="パス_16758" data-name="パス 16758" d="M16.6,17.015H14.243l-2.215-3.491a1.174,1.174,0,1,0-1.011.582c.037,0,.072-.008.108-.011l1.853,2.919H4.573L6.425,14.1c.036,0,.071.011.108.011a1.19,1.19,0,1,0-1.01-.582l-2.215,3.49H.952A.952.952,0,0,0,0,17.967v.446a.951.951,0,0,0,.6.882L1.4,26.2A2.6,2.6,0,0,0,3.982,28.5h9.587A2.6,2.6,0,0,0,16.147,26.2l.807-6.908a.951.951,0,0,0,.6-.882v-.446A.952.952,0,0,0,16.6,17.015ZM3.959,26.1l-.049,0a.484.484,0,0,1-.482-.436L2.96,21.056a.485.485,0,0,1,.433-.531l.049,0a.483.483,0,0,1,.482.436l.469,4.615A.486.486,0,0,1,3.959,26.1Zm2.408,0H6.342a.485.485,0,0,1-.484-.46l-.232-4.615a.485.485,0,0,1,.46-.509h0a.49.49,0,0,1,.507.46L6.826,25.6A.485.485,0,0,1,6.367,26.106Zm2.409.037a.485.485,0,0,1-.485-.485V21.009a.485.485,0,1,1,.969,0v4.649A.485.485,0,0,1,8.775,26.143Zm2.918-.5a.484.484,0,0,1-.484.46h-.025a.486.486,0,0,1-.46-.508l.232-4.615a.485.485,0,0,1,.485-.46.494.494,0,0,1,.359.16.482.482,0,0,1,.124.349Zm2.43.024a.483.483,0,0,1-.482.436l-.049,0a.485.485,0,0,1-.434-.531l.469-4.615a.483.483,0,0,1,.482-.436l.049,0a.485.485,0,0,1,.433.531Z" transform="translate(0 -11.752)" fill="#669f4f"/>
    </g>
    <g id="楕円形_227" data-name="楕円形 227" transform="translate(242 5482)" fill="none" stroke="#669f4f" stroke-width="1">
      <circle cx="19" cy="19" r="19" stroke="none"/>
      <circle cx="19" cy="19" r="18.5" fill="none"/>
    </g>
  </g>
</svg>
