<svg xmlns="http://www.w3.org/2000/svg" width="38" height="38" viewBox="0 0 38 38"><g transform="translate(-275 -99)"><g transform="translate(40)"><g transform="translate(235 99)" fill="none" stroke="#669f4f" stroke-width="1"><circle cx="19" cy="19" r="19" stroke="none"/><circle cx="19" cy="19" r="18.5" fill="none"/></g></g><g transform="translate(224.156 108.416)"><path d="M75.879,2.261A1.037,1.037,0,0,0,74.843,3.3V9.8h-.859V1.288a1.036,1.036,0,0,0-2.073,0V9.8h-.858V1.036a1.036,1.036,0,0,0-2.073,0V9.8H68V3.047a1.036,1.036,0,0,0-2.073,0v9.171a.393.393,0,0,1-.107.234.348.348,0,0,1-.106.081.231.231,0,0,1-.1.022.406.406,0,0,1-.152-.034,1.425,1.425,0,0,1-.492-.383,4.748,4.748,0,0,1-.715-1.124,13.025,13.025,0,0,0-1.295-2.263,2.437,2.437,0,0,0-.446-.46,1.305,1.305,0,0,0-.265-.157,1.091,1.091,0,0,0-.349-.09,1.036,1.036,0,0,0-1.108,1.207,8.863,8.863,0,0,0,.381,1.273c.3.863.846,2.267,1.828,4.5a11.8,11.8,0,0,0,3.255,4.326,8.838,8.838,0,0,0,2.144,1.317,6.017,6.017,0,0,0,2.334.5,5.754,5.754,0,0,0,2.913-.755,5.921,5.921,0,0,0,1.535-1.289,7.412,7.412,0,0,0,1.329-2.344,6.759,6.759,0,0,0,.409-2.177V3.3A1.036,1.036,0,0,0,75.879,2.261Z" transform="translate(0)" fill="#669f4f"/></g></g></svg>